<svg id="Layer_1" data-name="Layer 1" xmlns="http://www.w3.org/2000/svg" xmlns:xlink="http://www.w3.org/1999/xlink" viewBox="0 0 119 118.98">
  <defs>
    <style>
      .cls-1 {
        fill: none;
      }

      .cls-2 {
        clip-path: url(#clip-path);
      }

      .cls-3 {
        fill: #349fd9;
      }
    </style>
    <clipPath id="clip-path" transform="translate(-50 -52.12)">
      <rect class="cls-1" x="50" y="51.89" width="119" height="119"/>
    </clipPath>
  </defs>
  <title>america-futbol-eps</title>
  <g class="cls-2">
    <path class="cls-3" d="M50.42,133.67a127.17,127.17,0,0,0,1.4,31.72,5,5,0,0,0,3.91,3.91,120.56,120.56,0,0,0,21.55,1.79c3.17,0,6.58-.11,10.17-.39q4.92-.37,9.61-1.13L51.55,124.06c-.5,3.13-.87,6.33-1.13,9.61Zm0,0" transform="translate(-50 -52.12)"/>
    <path class="cls-3" d="M167.19,57.84a5,5,0,0,0-3.91-3.91,127.17,127.17,0,0,0-31.72-1.4q-4.92.38-9.61,1.13l45.51,45.51q.73-4.69,1.13-9.61a127.17,127.17,0,0,0-1.4-31.72Zm0,0" transform="translate(-50 -52.12)"/>
  </g>
  <path class="cls-3" d="M88.38,125.7l-3.52-3.52,7-7,3.52,3.52,7-7-7-7,7-7,7,7,7-7L113,94l7-7,3.52,3.52,10.57-10.55L110.37,56.16C96,60.13,83.75,67,74.3,76.41S58,98.11,54.05,112.48l23.77,23.78Zm0,0" transform="translate(-50 -52.12)"/>
  <path class="cls-3" d="M130.62,97.54l3.52,3.52-7,7-3.52-3.52-7,7,7,7-7,7-7-7-7,7,3.52,3.52-7,7-3.52-3.52L84.86,143.3l23.78,23.77c14.37-4,26.62-10.81,36.06-20.25S161,125.12,165,110.75L141.18,87Zm0,0" transform="translate(-50 -52.12)"/>
</svg>
