<svg id="Layer_1" data-name="Layer 1" xmlns="http://www.w3.org/2000/svg" viewBox="0 0 119 119">
  <defs>
    <style>
      .cls-1 {
        fill: #349fd9;
      }
    </style>
  </defs>
  <title>basketball-eps</title>
  <g>
    <path class="cls-1" d="M83.78,83.8a65.15,65.15,0,0,1,5.32,22.71h17.41v-56a59.06,59.06,0,0,0-35.3,14.24A65.43,65.43,0,0,1,83.78,83.8Zm0,0" transform="translate(-50.5 -50.5)"/>
    <path class="cls-1" d="M113.49,50.5v56H130.9a65.73,65.73,0,0,1,17.89-41.77,59.06,59.06,0,0,0-35.3-14.24Zm0,0" transform="translate(-50.5 -50.5)"/>
    <path class="cls-1" d="M82.1,113.49H50.5a59.11,59.11,0,0,0,15.69,36.92A58.38,58.38,0,0,0,82.1,113.49Zm0,0" transform="translate(-50.5 -50.5)"/>
    <path class="cls-1" d="M82.1,106.51A58.38,58.38,0,0,0,66.19,69.59,59.11,59.11,0,0,0,50.5,106.51Zm0,0" transform="translate(-50.5 -50.5)"/>
    <path class="cls-1" d="M137.9,106.51h31.6a59.11,59.11,0,0,0-15.69-36.92,58.38,58.38,0,0,0-15.91,36.92Zm0,0" transform="translate(-50.5 -50.5)"/>
    <path class="cls-1" d="M106.51,113.49H89.1a65.15,65.15,0,0,1-5.32,22.71,65.43,65.43,0,0,1-12.57,19.06,59.06,59.06,0,0,0,35.3,14.24Zm0,0" transform="translate(-50.5 -50.5)"/>
    <path class="cls-1" d="M137.9,113.49a58.38,58.38,0,0,0,15.91,36.92,59.11,59.11,0,0,0,15.69-36.92Zm0,0" transform="translate(-50.5 -50.5)"/>
    <path class="cls-1" d="M136.22,136.2a65.15,65.15,0,0,1-5.32-22.71H113.49v56a59.06,59.06,0,0,0,35.3-14.24,65.43,65.43,0,0,1-12.57-19.06Zm0,0" transform="translate(-50.5 -50.5)"/>
  </g>
</svg>
