<svg id="Layer_1" data-name="Layer 1" xmlns="http://www.w3.org/2000/svg" xmlns:xlink="http://www.w3.org/1999/xlink" viewBox="0 0 143.68 143.68">
  <defs>
    <style>
      .cls-1 {
        fill: none;
      }

      .cls-2 {
        clip-path: url(#clip-path);
      }

      .cls-3 {
        fill: #349fd9;
      }
    </style>
    <clipPath id="clip-path" transform="translate(-37.96 -39.87)">
      <rect class="cls-1" x="37.96" y="39.87" width="144" height="144.03"/>
    </clipPath>
  </defs>
  <title>cricket</title>
  <g>
    <g class="cls-2">
      <path class="cls-3" d="M179.53,60.88,160.63,42a7.21,7.21,0,0,0-10.19,0L67.29,125.13a7.21,7.21,0,0,0,0,10.19L71,139,39.27,170.76A3.93,3.93,0,0,0,38,173.38a3.27,3.27,0,0,0,1,2.48l6.63,6.63A3.38,3.38,0,0,0,48,183.56a3.79,3.79,0,0,0,2.73-1.33l31.72-31.72,3.71,3.71a7.21,7.21,0,0,0,10.19,0l83.15-83.14a7.22,7.22,0,0,0,0-10.2Zm0,0" transform="translate(-37.96 -39.87)"/>
    </g>
    <path class="cls-3" d="M155.49,124.09a15.42,15.42,0,1,0,15.42,15.42,15.43,15.43,0,0,0-15.42-15.42Zm0,0" transform="translate(-37.96 -39.87)"/>
  </g>
</svg>
