<svg id="Layer_1" data-name="Layer 1" xmlns="http://www.w3.org/2000/svg" viewBox="0 0 126 126.24">
  <defs>
    <style>
      .cls-1 {
        fill: #349fd9;
      }
    </style>
  </defs>
  <title>golf-eps</title>
  <g>
    <path class="cls-1" d="M78.22,85.8V82.59h4.35v1A19.65,19.65,0,0,0,88,78.23h-1V73.88h3.21a19.15,19.15,0,0,0,1-4.35H86.92V65.18h4.23a19.65,19.65,0,0,0-1-4.36H86.92V56.47h1a19.61,19.61,0,0,0-5.39-5.39v1H78.22V48.91a19.11,19.11,0,0,0-4.36-1v4.23H69.51V47.89a19.15,19.15,0,0,0-4.35,1v3.21H60.8v-1a19.75,19.75,0,0,0-5.39,5.39h1v4.35H53.24a19.64,19.64,0,0,0-1,4.36h4.22v4.35H52.23a19.68,19.68,0,0,0,1,4.35h3.21v4.35h-1a19.93,19.93,0,0,0,5.39,5.4v-1h4.36V85.8a19.68,19.68,0,0,0,4.35,1V82.59h4.35v4.22a19.64,19.64,0,0,0,4.36-1Zm0-29.33h4.35v4.35H78.22Zm0,8.71h4.35v4.35H78.22Zm0,8.7h4.35v4.35H78.22ZM65.16,78.23H60.8V73.88h4.36Zm0-8.7H60.8V65.18h4.36Zm0-8.71H60.8V56.47h4.36Zm4.35-4.35h4.35v4.35H69.51Zm0,8.71h4.35v4.35H69.51Zm0,13V73.88h4.35v4.35Zm0,0" transform="translate(-52.23 -36.88)"/>
    <path class="cls-1" d="M178.23,36.88h-7L156.11,80.41h8.19Zm0,0" transform="translate(-52.23 -36.88)"/>
    <path class="cls-1" d="M58.63,134v14.63a14.47,14.47,0,0,0,13.06,14.38V119.66A14.46,14.46,0,0,0,58.63,134ZM63,128.29h4.35v26.12H63Zm0,0" transform="translate(-52.23 -36.88)"/>
    <path class="cls-1" d="M118.38,123.84l-42.34-4v43.31h47.88V123.7a24.84,24.84,0,0,1-3.36.24c-.73,0-1.45,0-2.18-.1Zm1.19,34.92H80.39v-4.35h39.18Zm0-8.7H80.39v-4.35h39.18Zm0-8.71H80.39V137h39.18Zm0-8.7H80.39v-4.36h39.18Zm0,0" transform="translate(-52.23 -36.88)"/>
    <path class="cls-1" d="M165.75,84.76H152.69a1.71,1.71,0,0,0-1.58,1.09l-1.27,3.27h17l.56-2.24a1.44,1.44,0,0,0,0-.41,1.71,1.71,0,0,0-1.7-1.71Zm0,0" transform="translate(-52.23 -36.88)"/>
    <path class="cls-1" d="M142,109.28a22.86,22.86,0,0,1-13.72,13.33v40.51h1.37A23.92,23.92,0,0,0,152.88,145l12.88-51.51H148.14Zm0,0" transform="translate(-52.23 -36.88)"/>
  </g>
</svg>
