<svg id="Layer_1" data-name="Layer 1" xmlns="http://www.w3.org/2000/svg" xmlns:xlink="http://www.w3.org/1999/xlink" viewBox="0 0 120.57 154.37">
  <defs>
    <style>
      .cls-1 {
        fill: none;
      }

      .cls-2 {
        clip-path: url(#clip-path);
      }

      .cls-3 {
        fill: #349fd9;
      }
    </style>
    <clipPath id="clip-path" transform="translate(-54.33 -29.39)">
      <rect class="cls-1" x="26.19" y="58.99" width="173.55" height="96.03" transform="translate(-14.11 196.79) rotate(-78.7)"/>
    </clipPath>
  </defs>
  <title>hockey-stick-with-ball-eps</title>
  <g class="cls-2">
    <path class="cls-3" d="M167.4,29.39,84.67,160.74s-5.36,9.7-10.93,6.65c-4.46-3.43-4.19-6-4-14.72-1.69-5.2-11.11-7.47-15,.79-4.31,37.47,29.84,33,35.49,24.29,3-5.22,84.71-145,84.71-145Zm0,0" transform="translate(-54.33 -29.39)"/>
  </g>
  <path class="cls-3" d="M70.4,130.5a10.89,10.89,0,1,0-8.54-12.8,10.88,10.88,0,0,0,8.54,12.8Zm0,0" transform="translate(-54.33 -29.39)"/>
</svg>
