<svg id="Layer_1" data-name="Layer 1" xmlns="http://www.w3.org/2000/svg" viewBox="0 0 136.92 57.47">
  <defs>
    <style>
      .cls-1 {
        fill: #349fd9;
      }
    </style>
  </defs>
  <title>logo</title>
  <path class="cls-1" d="M68.13,102.08A10.8,10.8,0,0,1,68.65,99a10.26,10.26,0,0,1,3.79-5.23l.15-.11a33.81,33.81,0,0,1,8.19-3.78,7.78,7.78,0,0,1,1-.24h0c1.23-.32,2.42-.62,3.55-1,.49-.15,1-.32,1.41-.49,0,0,.07-.1.1-.16-.94.26-1.95.46-3,.66-1.55.29-3.17.56-4.86,1a21.32,21.32,0,0,0-6.29,2.89,10.93,10.93,0,0,0-3.49,3.69,7.26,7.26,0,0,0-.74,1.7A8.61,8.61,0,0,0,68,102h0" transform="translate(-45.58 -76.16)"/>
  <path class="cls-1" d="M61.29,112.67l-1.08-.09,1.08,0c3.6-.1,9.68-1.32,16.25-3.27,3-.92,10.68-3.48,11.8-4,.17-.08,1.24-.49,2.38-.92,3.26-1.24,6.83-2.68,8.23-3.31a2.82,2.82,0,0,1,.57-.21s.47-.19,1-.4c1.52-.68,2-.88,8.4-3.67,7.5-3.26,9-3.94,10.81-4.8l3.14-1.48c1.57-.72,18.86-8.57,22.46-9.65,7-2.07,14-3.35,18.11-3a13.56,13.56,0,0,1,4.72,1.35,6.37,6.37,0,0,1,2.36,2.54c1.19,2.17.58,7.7-1.4,11.67a27.05,27.05,0,0,1-3,4.61c-.07.1-.56.65-1.07,1.22a30.11,30.11,0,0,1-5.36,4.49,41.92,41.92,0,0,1-6.75,3.49,2.69,2.69,0,0,0-.61.22,5.89,5.89,0,0,1-1,.38c-4.77,1.44-7.17,1.9-9.83,1.92-7.46,0-15-1.81-21.6-6.93A35.91,35.91,0,0,1,117.7,100c-1-1-2.65-2.7-2.71-2.7a1.69,1.69,0,0,0-.62.21c-.44.19-1.56.65-2.49,1l-2.18.86c-.6.26-4.23,1.7-6.18,2.45l-1.92.75c-.7.31-7.68,3.07-11.34,4.49a103.1,103.1,0,0,1-15,4.42A51.1,51.1,0,0,1,61.29,112.67Zm82.24-7.45c4-.45,8.72-2.83,10.86-4.09a13.06,13.06,0,0,0,4.88-4.8,8.82,8.82,0,0,0,1.61-5.89c-.11-1.9-2.28-4.52-5-5.07a15.47,15.47,0,0,0-6.63.15c-1.39.25-2.94.55-3.44.67-2.78.69-3.72,1-5.52,1.51-3.7,1.15-7.62,2.56-10.35,3.74-.46.2-2.56,1-4.68,1.85-3.4,1.32-4.8,1.87-6.88,2.75l-1.88.69a31.3,31.3,0,0,0,3.54,3,30.62,30.62,0,0,0,2.85,1.75c1,.54,2.23,1.21,3,1.54a50.22,50.22,0,0,0,10.46,2.12l1.91.21A28.38,28.38,0,0,0,143.53,105.22Z" transform="translate(-45.58 -76.16)"/>
  <path class="cls-1" d="M58.76,110.71a5.36,5.36,0,0,1-3.19-2.08,5.86,5.86,0,0,1-.91-4.16C55,99.86,58.79,94.8,65,90.66a49,49,0,0,1,18.4-7,25.45,25.45,0,0,1,5.93-.28c.8,0,1.48.07,2.45.21,2.37.36,11.85,3.2,16,6.47l1.73,1.11.92-.3c1.29-.52,14.3-6.38,16-7C137.28,79.72,139,79.3,144,78.2c4.46-1,8.16-2.06,12.24-2a25.13,25.13,0,0,1,4.58.21c.8.22.75.22-1.69.22-4.56,0-9.33.89-16.84,3.16-7.87,2.37-13.46,5.3-27.67,11.4-.85.35-6.26,2.67-12,5.13l-15.33,6.55c-9.35,4-16.42,7.19-22.78,7.94A17,17,0,0,1,58.76,110.71Zm11.45-6.15a44.35,44.35,0,0,0,9.47-2.2c1.84-.66,18.37-6.49,20.85-7.53l.61-.26,1.64-.74s5.49-2,5.49-2.19a26.14,26.14,0,0,0-4.29-2.7A32.8,32.8,0,0,0,84.57,85.8,44.42,44.42,0,0,0,71.48,90c-5.53,2.92-10.74,10.35-9.12,12.53S67.79,104.88,70.21,104.56Z" transform="translate(-45.58 -76.16)"/>
  <path class="cls-1" d="M52.29,133a7.15,7.15,0,0,1-1.16.38,5.44,5.44,0,0,1-1.2.13,4.69,4.69,0,0,1-1.63-.28,4.16,4.16,0,0,1-1.41-.84,4.3,4.3,0,0,1-1.31-3.13,3.71,3.71,0,0,1,.52-2,5.84,5.84,0,0,1,1-1.29,3.67,3.67,0,0,1,.94-.63,4.66,4.66,0,0,1,.73-.24,3.7,3.7,0,0,1,.58-.1,3.64,3.64,0,0,1,.57,0,6.63,6.63,0,0,1,.86.07,7.32,7.32,0,0,1,.9.21l.61.28v1.08A3.76,3.76,0,0,0,50,125.9a3.52,3.52,0,0,0-1.55.34,3.28,3.28,0,0,0-1.24,1,3.61,3.61,0,0,0-.62,2,3.55,3.55,0,0,0,.47,1.77,3,3,0,0,0,1.3,1.23,3.6,3.6,0,0,0,1.67.42,3.1,3.1,0,0,0,1.65-.45l.57-.37Z" transform="translate(-45.58 -76.16)"/>
  <path class="cls-1" d="M64,129.25a4.37,4.37,0,0,1-4.37,4.38,4.45,4.45,0,0,1-3.16-1.24,4,4,0,0,1-1.32-3A4.37,4.37,0,0,1,59.55,125a4.43,4.43,0,0,1,3.15,1.24A4,4,0,0,1,64,129.25Zm-1,0a3.16,3.16,0,0,0-1-2.38,3.4,3.4,0,0,0-2.44-1,3.16,3.16,0,0,0-2.38,1,3.4,3.4,0,0,0-1,2.44,3.19,3.19,0,0,0,1,2.38,3.43,3.43,0,0,0,2.45,1,3.16,3.16,0,0,0,2.38-1A3.44,3.44,0,0,0,63,129.23Z" transform="translate(-45.58 -76.16)"/>
  <path class="cls-1" d="M74.24,133.58H74l-6-6.56v6.39h-.92V125h.23l5.92,6.57v-6.37h.94Z" transform="translate(-45.58 -76.16)"/>
  <path class="cls-1" d="M84.46,126.09H82.1v7.32h-1v-7.32H78.73v-.86h5.73Z" transform="translate(-45.58 -76.16)"/>
  <path class="cls-1" d="M94.8,133.41H90.36v-8.18H94.8v.88H91.34v2.42H94.8v.84H91.34v3.15H94.8Z" transform="translate(-45.58 -76.16)"/>
  <path class="cls-1" d="M107.41,133.58h-.2l-6-6.56v6.39h-.92V125h.23l5.92,6.57v-6.37h.94Z" transform="translate(-45.58 -76.16)"/>
  <path class="cls-1" d="M117.62,126.09h-2.35v7.32h-1v-7.32h-2.36v-.86h5.73Z" transform="translate(-45.58 -76.16)"/>
  <path class="cls-1" d="M139.14,133.41H138l-1-2.54h-3.26l-1.05,2.54h-1.06l3.59-8.42h.27Zm-2.51-3.29-1.37-3.53-1.33,3.53Z" transform="translate(-45.58 -76.16)"/>
  <path class="cls-1" d="M148.89,133.4h-1.33l-3.08-4.18v4.18h-1v-8.18l3,0a1.8,1.8,0,0,1,1.43.66,2.34,2.34,0,0,1,.56,1.54,2.39,2.39,0,0,1-.16.86,2,2,0,0,1-.53.73,2.66,2.66,0,0,1-.89.48h-1.09Zm-2.25-7.19a1.71,1.71,0,0,0-.3-.09,1.13,1.13,0,0,0-.3,0h-1.56v2.74h1.83a1,1,0,0,0,.82-.37,1.4,1.4,0,0,0,.3-.9,1.68,1.68,0,0,0-.2-.81A1.22,1.22,0,0,0,146.64,126.21Z" transform="translate(-45.58 -76.16)"/>
  <path class="cls-1" d="M158.84,133.41H154.4v-8.18h4.44v.88h-3.45v2.42h3.45v.84h-3.45v3.15h3.45Z" transform="translate(-45.58 -76.16)"/>
  <path class="cls-1" d="M171.45,133.58h-.2l-6-6.56v6.39h-.92V125h.23l5.92,6.57v-6.37h.94Z" transform="translate(-45.58 -76.16)"/>
  <path class="cls-1" d="M182.5,133.41h-1.14l-1.05-2.54h-3.26L176,133.4h-1.06l3.59-8.42h.27ZM180,130.12l-1.37-3.53-1.33,3.53Z" transform="translate(-45.58 -76.16)"/>
</svg>
