<svg id="Layer_1" data-name="Layer 1" xmlns="http://www.w3.org/2000/svg" viewBox="0 0 119 119">
  <defs>
    <style>
      .cls-1 {
        fill: #349fd9;
      }
    </style>
  </defs>
  <title>soccer-ball-eps</title>
  <path class="cls-1" d="M111.67,45.83a59.5,59.5,0,1,0,59.5,59.5A59.57,59.57,0,0,0,111.67,45.83Zm44.78,85.92L138,135.4l-7.19-8.51,8.77-24.56L151,96.73l12.52,13.67A51.64,51.64,0,0,1,156.45,131.75Zm-71.17,3.91-16.53-.92a51.76,51.76,0,0,1-8.89-24.35l12.6-13.68,11.48,5.62,8.65,24.56Zm66.95-62.88L148.59,89.6l-11.67,5.72L115.44,79.68V65.16l15.3-8.22A52.21,52.21,0,0,1,152.23,72.78ZM92.72,56.89,108,65.15V79.68L86.56,95.32,74.83,89.6,71.18,72.67A52.21,52.21,0,0,1,92.72,56.89Zm3,98-4.68-14.56,7.46-9h26.28l7.33,8.68-7.22,15.58a51,51,0,0,1-29.17-.73Z" transform="translate(-52.17 -45.83)"/>
</svg>
