<svg id="Layer_1" data-name="Layer 1" xmlns="http://www.w3.org/2000/svg" viewBox="0 0 119 119">
  <defs>
    <style>
      .cls-1 {
        fill: #349fd9;
      }
    </style>
  </defs>
  <title>tennis-eps</title>
  <g>
    <path class="cls-1" d="M104.79,53a59.53,59.53,0,0,0-53.7,53.72c14.62,1.68,30.16,9.15,42.92,21.91s20.24,28.32,21.92,42.93a59.46,59.46,0,0,0,53.7-53.7c-14.58-1.69-30.15-9.16-42.9-21.92S106.49,67.61,104.79,53Zm0,0" transform="translate(-50.87 -52.76)"/>
    <path class="cls-1" d="M169.87,110.47a59.5,59.5,0,0,0-57.7-57.71c1.64,12.79,8.43,26.52,19.81,37.9s25.1,18.16,37.89,19.81Zm0,0" transform="translate(-50.87 -52.76)"/>
    <path class="cls-1" d="M50.87,114.07a59.46,59.46,0,0,0,57.69,57.69c-1.64-12.76-8.41-26.49-19.8-37.87s-25.11-18.16-37.89-19.82Zm0,0" transform="translate(-50.87 -52.76)"/>
  </g>
</svg>
