<svg id="Layer_1" data-name="Layer 1" xmlns="http://www.w3.org/2000/svg" xmlns:xlink="http://www.w3.org/1999/xlink" viewBox="0 0 119.48 119.94">
  <defs>
    <style>
      .cls-1 {
        fill: none;
      }

      .cls-2 {
        fill: #349fd9;
      }

      .cls-3 {
        clip-path: url(#clip-path);
      }
    </style>
    <clipPath id="clip-path" transform="translate(-52.79 -45.77)">
      <rect class="cls-1" x="52.79" y="45.77" width="119" height="125.45"/>
    </clipPath>
  </defs>
  <title>volleyball-eps</title>
  <path class="cls-2" d="M109.66,100.73a81.82,81.82,0,0,1-9.54-53.53,2.37,2.37,0,0,0-1.45.49A63.19,63.19,0,0,0,80,55.34c-1.43,1-3.34,2.38-2.88,1.92A81.13,81.13,0,0,0,92.47,120.8c6.69-5.25,12.41-12.42,17.19-20.07Zm0,0" transform="translate(-52.79 -45.77)"/>
  <g class="cls-3">
    <path class="cls-2" d="M71.44,62l-3.36,3.35a59.87,59.87,0,0,0-15.29,40.14A57.92,57.92,0,0,0,60,134.19a10,10,0,0,0,1.44,2.38,81,81,0,0,0,26.77-12.41C74.78,105.51,69,83.53,71.44,62Zm0,0" transform="translate(-52.79 -45.77)"/>
    <path class="cls-2" d="M171.81,98.82c-.49-2.39-1-4.79-.49-3.83a82.72,82.72,0,0,0-66.44-22A74.17,74.17,0,0,0,114,98.35a84.55,84.55,0,0,1,56.41,22.94c0,.47.49-1.45.49-2.87a59.1,59.1,0,0,0,1.42-12.91,30.58,30.58,0,0,0-.46-6.69Zm0,0" transform="translate(-52.79 -45.77)"/>
  </g>
  <path class="cls-2" d="M168.93,86.4c0,.47-.49-1.92-1.44-3.36a58.92,58.92,0,0,0-55-37.27,23.69,23.69,0,0,0-5.74.47h-1.42a83.84,83.84,0,0,0-1,22A83.41,83.41,0,0,1,168.93,86.4Zm0,0" transform="translate(-52.79 -45.77)"/>
  <path class="cls-2" d="M87.68,160c-.47,0,1,.47,1.42,1a64.12,64.12,0,0,0,23.43,4.76,59.2,59.2,0,0,0,55-36.78c.49-1,.95-2.4.95-1.91a85.37,85.37,0,0,0-23.89-16.73A86.6,86.6,0,0,1,87.68,160Zm0,0" transform="translate(-52.79 -45.77)"/>
  <path class="cls-2" d="M140.26,107.89A80.79,80.79,0,0,0,114,103.14a84.78,84.78,0,0,1-49.68,37.75c0-.49.94.93,1.43,1.89a42.91,42.91,0,0,0,11.94,11c1.43,1,3.34,2.4,3.34,2.4,25.81-4.78,48.29-22.47,59.28-48.28Zm0,0" transform="translate(-52.79 -45.77)"/>
</svg>
