<svg xmlns="http://www.w3.org/2000/svg" width="30" height="30" viewBox="0 0 30 30">
  <metadata><?xpacket begin="﻿" id="W5M0MpCehiHzreSzNTczkc9d"?>
<x:xmpmeta xmlns:x="adobe:ns:meta/" x:xmptk="Adobe XMP Core 5.6-c142 79.160924, 2017/07/13-01:06:39        ">
   <rdf:RDF xmlns:rdf="http://www.w3.org/1999/02/22-rdf-syntax-ns#">
      <rdf:Description rdf:about=""/>
   </rdf:RDF>
</x:xmpmeta>
                                                                                                    
                                                                                                    
                                                                                                    
                                                                                                    
                                                                                                    
                                                                                                    
                                                                                                    
                                                                                                    
                                                                                                    
                                                                                                    
                                                                                                    
                                                                                                    
                                                                                                    
                                                                                                    
                                                                                                    
                                                                                                    
                                                                                                    
                                                                                                    
                                                                                                    
                                                                                                    
                           
<?xpacket end="w"?></metadata>
<defs>
    <style>
      .cls-1 {
        fill-rule: evenodd;
      }
    </style>
  </defs>
  <path class="cls-1" d="M13.465,21.013H8.3a3.273,3.273,0,0,0-3.227,3.31,0.654,0.654,0,0,0,.646.662H16.047a0.654,0.654,0,0,0,.645-0.662A3.273,3.273,0,0,0,13.465,21.013ZM6.042,24c0.266-.771,1.094-2,1.936-2h5.807c0.841,0,1.669,1.229,1.936,2H6.042Zm21.211-2.778A3.362,3.362,0,0,0,25.1,18.8l-0.194-.067a99.71,99.71,0,0,1-7.61-6.9l1.319-1.36,1.245-.641a2.665,2.665,0,0,0,.679-4.186l0,0L17.769,2.781l0,0-0.034-.034a2.469,2.469,0,0,0-4,.689L13.083,4.76,7.7,10.313l-1.167.619a2.712,2.712,0,0,0-.774,4.185l2.792,2.878L8.58,18.027a2.551,2.551,0,0,0,4.064-.817l0.587-1.195,1.225-1.263c0.688,0.75,6.366,6.871,6.8,7.744l0.064,0.2a3.338,3.338,0,0,0,2.354,2.22,2.857,2.857,0,0,0,2.781-.825A3.066,3.066,0,0,0,27.253,21.221ZM14.893,4.033A1.186,1.186,0,0,1,16.817,3.7l2.794,2.88a1.3,1.3,0,0,1-.333,2.039l-0.919.473L14.412,5.025ZM11.48,16.6a1.271,1.271,0,0,1-1.992.46L6.7,14.19l-0.014-.015a1.349,1.349,0,0,1,.439-2.048l0.834-.443L11.9,15.747ZM12.7,14.666l-3.689-3.8,4.611-4.754,3.689,3.8Zm8.879,6.058c-1.5-1.835-4.661-5.248-6.2-6.922l1-1.026c1.686,1.623,5.012,4.789,6.8,6.3Zm3.956,2.414a1.583,1.583,0,0,1-1.559.467,2.036,2.036,0,0,1-1.417-1.337,1.913,1.913,0,0,0-.182-0.466l1.861-1.919a1.855,1.855,0,0,0,.453.188,2.05,2.05,0,0,1,1.3,1.459A1.7,1.7,0,0,1,25.531,23.138Z"/>
</svg>
