<svg id="Layer_1" data-name="Layer 1" xmlns="http://www.w3.org/2000/svg" xmlns:xlink="http://www.w3.org/1999/xlink" viewBox="0 0 87.48 87.89">
  <defs>
    <style>
      .cls-1, .cls-2 {
        fill: none;
      }

      .cls-1 {
        clip-rule: evenodd;
      }

      .cls-3 {
        clip-path: url(#clip-path);
      }

      .cls-4 {
        clip-path: url(#clip-path-2);
      }

      .cls-5 {
        fill: #24b8eb;
      }

      .cls-6 {
        clip-path: url(#clip-path-3);
      }

      .cls-7 {
        clip-path: url(#clip-path-5);
      }

      .cls-8 {
        clip-path: url(#clip-path-7);
      }

      .cls-9 {
        clip-path: url(#clip-path-9);
      }

      .cls-10 {
        clip-path: url(#clip-path-11);
      }

      .cls-11 {
        clip-path: url(#clip-path-13);
      }

      .cls-12 {
        clip-path: url(#clip-path-15);
      }

      .cls-13 {
        clip-path: url(#clip-path-17);
      }
    </style>
    <clipPath id="clip-path" transform="translate(3.99 3.35)">
      <path class="cls-1" d="M32,55l10.93,5.46A8.79,8.79,0,1,0,44,58.2L33.89,53.12a18.71,18.71,0,0,0,0-25L44,23a9,9,0,1,0-1.12-2.25L32,26.21A18.85,18.85,0,1,0,32,55m19.27,2A6.28,6.28,0,1,1,45,63.21a6.29,6.29,0,0,1,6.28-6.28m0-45.23A6.29,6.29,0,1,1,45,18a6.29,6.29,0,0,1,6.28-6.28M18.35,39.34a5.27,5.27,0,0,0-4.51,2.56,7.73,7.73,0,0,1-6.58,3.72H4.32a16.15,16.15,0,0,1-.74-3.77H7.21a4.57,4.57,0,0,0,4.44-3.46,2.05,2.05,0,0,1,2-1.56,8.7,8.7,0,0,0,7-3.52A8.82,8.82,0,0,0,22.36,28V24.48A16.26,16.26,0,0,1,32,29.7L29.59,30a5.52,5.52,0,0,0-4.72,5.43v.4a5.39,5.39,0,0,0,2.44,4.51,3,3,0,0,1,1.33,2.48v3a3.74,3.74,0,0,0,1.11,2.66l2.59,2.6a16.32,16.32,0,0,1-11.23,5.77V55.32A18.64,18.64,0,0,1,23.06,47a5.32,5.32,0,0,0-4.71-7.69M33.82,49l-2.3-2.3a1.25,1.25,0,0,1-.36-.88v-3a5.51,5.51,0,0,0-2.5-4.6,2.88,2.88,0,0,1-1.28-2.39v-.4a3,3,0,0,1,2.56-2.94L33.7,32a16.19,16.19,0,0,1,.12,17m-14-24.75V28a6.39,6.39,0,0,1-1.3,3.83,6.16,6.16,0,0,1-4.9,2.46,4.57,4.57,0,0,0-4.44,3.46,2.05,2.05,0,0,1-2,1.56H3.58A16.34,16.34,0,0,1,19.85,24.27M5.38,48.13H7.26A10.22,10.22,0,0,0,16,43.19a2.78,2.78,0,0,1,4.83,2.72,21,21,0,0,0-2.23,9.41v1.54A16.31,16.31,0,0,1,5.38,48.13"/>
    </clipPath>
    <clipPath id="clip-path-2" transform="translate(3.99 3.35)">
      <rect class="cls-2" x="-711.99" y="-550.35" width="1500" height="1347"/>
    </clipPath>
    <clipPath id="clip-path-3" transform="translate(3.99 3.35)">
      <path class="cls-1" d="M51.26,21.75A3.77,3.77,0,1,0,47.49,18a3.78,3.78,0,0,0,3.77,3.77m0-5A1.26,1.26,0,1,1,50,18a1.25,1.25,0,0,1,1.26-1.25"/>
    </clipPath>
    <clipPath id="clip-path-5" transform="translate(3.99 3.35)">
      <path class="cls-1" d="M51.26,67a3.77,3.77,0,1,0-3.77-3.77A3.78,3.78,0,0,0,51.26,67m0-5A1.26,1.26,0,1,1,50,63.21,1.26,1.26,0,0,1,51.26,62"/>
    </clipPath>
    <clipPath id="clip-path-7" transform="translate(3.99 3.35)">
      <path class="cls-1" d="M18.31,17.2l-1.93-1.62c-.76.92-1.5,1.88-2.19,2.87l2.07,1.43c.64-.92,1.33-1.83,2-2.68"/>
    </clipPath>
    <clipPath id="clip-path-9" transform="translate(3.99 3.35)">
      <path class="cls-1" d="M22.88,12.63l-1.61-1.92c-.89.74-1.75,1.53-2.58,2.35l1.78,1.78c.77-.77,1.58-1.51,2.41-2.21"/>
    </clipPath>
    <clipPath id="clip-path-11" transform="translate(3.99 3.35)">
      <path class="cls-1" d="M46.23,4.17A36.12,36.12,0,0,1,73.75,16.73H66.33v2.51H77.64V7.93H75.13V14.5a38.93,38.93,0,0,0-51-6l1.43,2.06a36.21,36.21,0,0,1,20.64-6.4"/>
    </clipPath>
    <clipPath id="clip-path-13" transform="translate(3.99 3.35)">
      <path class="cls-1" d="M76.41,61c-.64,1-1.34,1.88-2.07,2.76l1.94,1.6c.78-.94,1.52-1.94,2.21-3Z"/>
    </clipPath>
    <clipPath id="clip-path-15" transform="translate(3.99 3.35)">
      <path class="cls-1" d="M69.4,68.71,71,70.65c.95-.79,1.88-1.63,2.76-2.51L72,66.36c-.82.82-1.69,1.61-2.59,2.35"/>
    </clipPath>
    <clipPath id="clip-path-17" transform="translate(3.99 3.35)">
      <path class="cls-1" d="M46.23,77A36.1,36.1,0,0,1,18.72,64.47h7.41V62H14.83V73.26h2.51V66.69A38.94,38.94,0,0,0,67.39,73.3L66,71.19A36.27,36.27,0,0,1,46.23,77"/>
    </clipPath>
  </defs>
  <title>flow</title>
  <g class="cls-3">
    <g class="cls-4">
      <rect class="cls-5" y="7.54" width="69.04" height="72.81"/>
    </g>
  </g>
  <g class="cls-6">
    <g class="cls-4">
      <rect class="cls-5" x="46.48" y="12.56" width="17.54" height="17.54"/>
    </g>
  </g>
  <g class="cls-7">
    <g class="cls-4">
      <rect class="cls-5" x="46.48" y="57.79" width="17.54" height="17.54"/>
    </g>
  </g>
  <g class="cls-8">
    <g class="cls-4">
      <rect class="cls-5" x="13.19" y="13.93" width="14.11" height="14.3"/>
    </g>
  </g>
  <g class="cls-9">
    <g class="cls-4">
      <rect class="cls-5" x="17.69" y="9.05" width="14.19" height="14.13"/>
    </g>
  </g>
  <g class="cls-10">
    <g class="cls-4">
      <rect class="cls-5" x="23.16" width="63.48" height="27.59"/>
    </g>
  </g>
  <g class="cls-11">
    <g class="cls-4">
      <rect class="cls-5" x="73.34" y="59.36" width="14.15" height="14.35"/>
    </g>
  </g>
  <g class="cls-12">
    <g class="cls-4">
      <rect class="cls-5" x="68.4" y="64.7" width="14.36" height="14.29"/>
    </g>
  </g>
  <g class="cls-13">
    <g class="cls-4">
      <rect class="cls-5" x="13.82" y="60.3" width="62.56" height="27.59"/>
    </g>
  </g>
</svg>
