<svg id="Layer_1" data-name="Layer 1" xmlns="http://www.w3.org/2000/svg" xmlns:xlink="http://www.w3.org/1999/xlink" viewBox="0 0 77 78.58">
  <defs>
    <style>
      .cls-1, .cls-3 {
        fill: none;
      }

      .cls-2 {
        clip-path: url(#clip-path);
      }

      .cls-3 {
        stroke: #c7e4ef;
        stroke-miterlimit: 10;
      }

      .cls-4 {
        clip-path: url(#clip-path-2);
      }

      .cls-5 {
        isolation: isolate;
      }

      .cls-6 {
        clip-path: url(#clip-path-4);
      }

      .cls-7 {
        clip-path: url(#clip-path-5);
      }

      .cls-8 {
        clip-path: url(#clip-path-6);
      }

      .cls-9 {
        clip-path: url(#clip-path-8);
      }

      .cls-10 {
        clip-path: url(#clip-path-9);
      }
    </style>
    <clipPath id="clip-path" transform="translate(-0.98 -3.61)">
      <rect class="cls-1" x="-716.52" y="-869.31" width="1500" height="1611"/>
    </clipPath>
    <clipPath id="clip-path-2" transform="translate(-0.98 -3.61)">
      <rect class="cls-1" x="1.48" y="22.98" width="44.14" height="58.71"/>
    </clipPath>
    <clipPath id="clip-path-4" transform="translate(-0.98 -3.61)">
      <rect class="cls-1" x="-4.52" y="17.69" width="56" height="70"/>
    </clipPath>
    <clipPath id="clip-path-5" transform="translate(-0.98 -3.61)">
      <rect class="cls-1" x="1.48" y="22.69" width="45" height="59"/>
    </clipPath>
    <clipPath id="clip-path-6" transform="translate(-0.98 -3.61)">
      <rect class="cls-1" x="9.93" y="4.11" width="46.05" height="13.87"/>
    </clipPath>
    <clipPath id="clip-path-8" transform="translate(-0.98 -3.61)">
      <rect class="cls-1" x="4.48" y="-1.31" width="57" height="25"/>
    </clipPath>
    <clipPath id="clip-path-9" transform="translate(-0.98 -3.61)">
      <rect class="cls-1" x="9.48" y="3.69" width="47" height="15"/>
    </clipPath>
  </defs>
  <title>world-disabled</title>
  <g class="cls-2">
    <path class="cls-3" d="M71,21l-1.14.37-6.08.54-1.72,2.76-1.25-.4L56,19.87l-.7-2.28-.94-2.44-3-2.75-3.59-.71-.08,1.66,3.51,3.45,1.72,2-1.93,1-1.58-.47L47,18.4l.08-1.91L44,15.2l-1,4.51-3.12.71.31,2.51,4.07.79.7-4,3.35.5,1.56.92h2.51l1.71,3.45,4.54,4.64L58.26,31l-3.67-.47-6.32,3.22-4.56,5.5-.59,2.44H41.49L38.44,40.3l-3,1.41.74,3.14,1.28-1.49,2.27-.07-.16,2.82,1.88.55,1.87,2.12,3.06-.86,3.49.55L54,49.57l2,.24,3.44,3.93,6.63,3.93-4.29,8.25L57.25,68l-1.72,4.71L49,77.15l-.7,2.54A38.49,38.49,0,0,0,71,21" transform="translate(-0.98 -3.61)"/>
  </g>
  <g class="cls-4">
    <g class="cls-2">
      <g class="cls-5">
        <g class="cls-6">
          <g class="cls-7">
            <path class="cls-3" d="M43.87,63.26,41.1,58l2.55-5.38-2.55-.77L38.25,49l-6.32-1.44-2.1-4.46v2.65H28.9l-5.45-7.5V32.06l-4-6.59-6.35,1.15H8.84L6.69,25.19,9.43,23l-2.73.64A38.8,38.8,0,0,0,1.48,43.08c0,21.32,17,38.61,38,38.61a39.38,39.38,0,0,0,4.77-.33l-.39-4.68s1.74-7,1.74-7.18-1.75-6.24-1.75-6.24" transform="translate(-0.98 -3.61)"/>
          </g>
        </g>
      </g>
    </g>
  </g>
  <g class="cls-8">
    <g class="cls-2">
      <g class="cls-5">
        <g class="cls-9">
          <g class="cls-10">
            <path class="cls-3" d="M15.43,16.41l6.83-.94,3.15-1.71,3.55,1,5.66-.31,1.94-3,2.83.47,6.88-.64,1.89-2.07,2.67-1.77L54.61,8,56,7.78A38.58,38.58,0,0,0,9.93,18h0Zm25.8-8.5,3.93-2.15,2.53,1.45L44,10l-3.49.35L39,9.3Zm-11.64.31,1.74.71,2.27-.71,1.24,2.12-5.25,1.37-2.52-1.46S29.54,8.67,29.59,8.22Z" transform="translate(-0.98 -3.61)"/>
          </g>
        </g>
      </g>
    </g>
  </g>
</svg>
