<svg id="Layer_1" data-name="Layer 1" xmlns="http://www.w3.org/2000/svg" xmlns:xlink="http://www.w3.org/1999/xlink" viewBox="0 0 86 87.58">
  <defs>
    <style>
      .cls-1, .cls-2 {
        fill: none;
      }

      .cls-1 {
        clip-rule: evenodd;
      }

      .cls-3 {
        clip-path: url(#clip-path);
      }

      .cls-4 {
        clip-path: url(#clip-path-2);
      }

      .cls-5 {
        fill: #23b8eb;
      }

      .cls-6 {
        clip-path: url(#clip-path-3);
      }

      .cls-7 {
        isolation: isolate;
      }

      .cls-8 {
        clip-path: url(#clip-path-5);
      }

      .cls-9 {
        clip-path: url(#clip-path-6);
      }

      .cls-10 {
        clip-path: url(#clip-path-7);
      }

      .cls-11 {
        clip-path: url(#clip-path-8);
      }

      .cls-12 {
        clip-path: url(#clip-path-10);
      }

      .cls-13 {
        clip-path: url(#clip-path-11);
      }
    </style>
    <clipPath id="clip-path" transform="translate(3.29 1.99)">
      <path class="cls-1" d="M71.25,19.89l-1.14.36L64,20.8l-1.72,2.76-1.24-.4-4.84-4.39-.71-2.29-.94-2.43-3-2.75L48,10.59l-.08,1.66,3.52,3.45,1.72,2-1.94,1-1.57-.47-2.36-1,.08-1.92L44.23,14.1l-1,4.51-3.12.71.31,2.51,4.06.79.7-4,3.36.5,1.56.92h2.5l1.71,3.46,4.54,4.64-.33,1.8-3.66-.47L48.5,32.67,44,38.17l-.59,2.44H41.72l-3-1.42-3,1.42.74,3.14,1.29-1.49L40,42.19,39.84,45l1.88.55,1.87,2.12,3.06-.86,3.5.55,4.05,1.1,2,.24,3.43,3.93,6.63,3.92L62,64.81l-4.53,2.13-1.72,4.71-6.55,4.4-.69,2.54a38.5,38.5,0,0,0,22.73-58.7"/>
    </clipPath>
    <clipPath id="clip-path-2" transform="translate(3.29 1.99)">
      <rect class="cls-2" x="-717.29" y="-876.41" width="1500" height="1333"/>
    </clipPath>
    <clipPath id="clip-path-3" transform="translate(3.29 1.99)">
      <rect class="cls-2" x="1.71" y="21.88" width="44.14" height="58.71"/>
    </clipPath>
    <clipPath id="clip-path-5" transform="translate(3.29 1.99)">
      <rect class="cls-2" x="0.71" y="21.59" width="46" height="60"/>
    </clipPath>
    <clipPath id="clip-path-6" transform="translate(3.29 1.99)">
      <path class="cls-1" d="M41.34,56.94l2.54-5.38-2.54-.77-2.85-2.91-6.33-1.44L30.06,42v2.65h-.92l-5.45-7.5V31l-4-6.59-6.35,1.15H9.08L6.93,24.08l2.74-2.2-2.73.64A38.8,38.8,0,0,0,1.71,42c0,21.32,17,38.61,38,38.61a41.83,41.83,0,0,0,4.77-.33l-.4-4.68s1.75-7,1.75-7.19-1.75-6.23-1.75-6.23Z"/>
    </clipPath>
    <clipPath id="clip-path-7" transform="translate(3.29 1.99)">
      <rect class="cls-2" x="1.71" y="21.59" width="45" height="59"/>
    </clipPath>
    <clipPath id="clip-path-8" transform="translate(3.29 1.99)">
      <rect class="cls-2" x="10.17" y="3.01" width="46.05" height="13.87"/>
    </clipPath>
    <clipPath id="clip-path-10" transform="translate(3.29 1.99)">
      <rect class="cls-2" x="9.71" y="2.59" width="47" height="15"/>
    </clipPath>
    <clipPath id="clip-path-11" transform="translate(3.29 1.99)">
      <path class="cls-1" d="M15.66,15.31l6.84-.94,3.15-1.72,3.54,1,5.67-.31,1.94-3,2.83.46,6.87-.64,1.9-2.06,2.67-1.77,3.77.56,1.38-.21a38.61,38.61,0,0,0-46,10.21h0ZM41.47,6.8l3.92-2.14L47.92,6.1,44.27,8.86l-3.49.35-1.57-1Zm-11.64.32,1.73.71,2.27-.71,1.24,2.12-5.24,1.37L27.31,9.14S29.77,7.57,29.83,7.12Z"/>
    </clipPath>
  </defs>
  <title>world-active</title>
  <g class="cls-3">
    <g class="cls-4">
      <rect class="cls-5" x="34" y="7.58" width="52" height="78"/>
    </g>
  </g>
  <g class="cls-6">
    <g class="cls-4">
      <g class="cls-7">
        <g class="cls-8">
          <g class="cls-9">
            <g class="cls-10">
              <rect class="cls-5" y="18.87" width="54.15" height="68.71"/>
            </g>
          </g>
        </g>
      </g>
    </g>
  </g>
  <g class="cls-11">
    <g class="cls-4">
      <g class="cls-7">
        <g class="cls-12">
          <g class="cls-13">
            <g class="cls-12">
              <rect class="cls-5" x="8.45" width="56.05" height="23.87"/>
            </g>
          </g>
        </g>
      </g>
    </g>
  </g>
</svg>
