<?xml version="1.0" encoding="iso-8859-1"?>
<!-- Generator: Adobe Illustrator 19.0.0, SVG Export Plug-In . SVG Version: 6.00 Build 0)  -->
<svg version="1.1" id="Capa_1" xmlns="http://www.w3.org/2000/svg" xmlns:xlink="http://www.w3.org/1999/xlink" x="0px" y="0px"
	 viewBox="0 0 483.953 483.953" style="enable-background:new 0 0 483.953 483.953;" xml:space="preserve">
<g>
	<g>
		<g>
			<path d="M56.101,308.375c0.179-2.911-2.035-5.415-4.945-5.595h-46.2c-2.66,0.164-4.781,2.285-4.945,4.945
				c-0.179,2.911,2.035,5.415,4.945,5.595h46.2C53.816,313.156,55.937,311.035,56.101,308.375z"/>
			<path d="M9.155,281.32l40,16.26c2.706,1.105,5.795-0.194,6.9-2.9s-0.194-5.795-2.9-6.9l-40-16.26
				c-2.706-1.105-5.795,0.194-6.9,2.9C5.151,277.126,6.449,280.215,9.155,281.32z"/>
			<path d="M468.555,244.82l-158-51.66v0.1c-5.613-1.864-11.737-1.418-17.02,1.24c-2.633,1.337-4.978,3.178-6.9,5.42l-51.02-16.62
				c-0.604-6.993-5.218-12.996-11.82-15.38c-0.284-0.126-0.578-0.226-0.88-0.3c-2.254-0.675-4.62-0.892-6.96-0.64l11.34-34.62
				c8.734,1.001,16.97-4.27,19.72-12.62c3.143-9.696-2.14-20.109-11.82-23.3l-98.58-32.14c-9.696-3.143-20.109,2.14-23.3,11.82v0.12
				c-2.628,8.322,0.903,17.35,8.48,21.68l-45.44,138.7c-8.558-0.976-16.661,4.069-19.56,12.18c-0.117,0.272-0.21,0.553-0.28,0.84
				c-2.871,9.624,2.452,19.783,12,22.9l98.54,32.08c9.533,3.092,19.796-1.96,23.16-11.4c0.115-0.265,0.209-0.539,0.28-0.82
				c2.473-8.267-1.084-17.147-8.58-21.42l11.34-34.64c1.741,1.587,3.78,2.811,6,3.6c0.272,0.117,0.553,0.21,0.84,0.28
				c4.381,1.317,9.102,0.894,13.18-1.18c2.07-1.049,3.917-2.489,5.44-4.24l51.02,16.7c0.697,9.023,6.746,16.744,15.34,19.58
				l158,51.66c11.728,3.8,24.322-2.591,28.18-14.3l11.62-35.5C486.635,261.225,480.242,248.67,468.555,244.82z M123.195,79.56
				c0.069-0.17,0.129-0.344,0.18-0.52c1.503-4.026,5.918-6.146,10-4.8l97.929,31.988c0.163,0.078,0.317,0.17,0.491,0.232
				l-0.043-0.086l0.263,0.086c4.013,1.371,6.259,5.635,5.12,9.72c-0.063,0.17-0.116,0.344-0.16,0.52
				c-1.503,4.026-5.918,6.146-10,4.8l-1.4-0.46h-0.12l-95.48-31.24l-0.12-0.02l-1.18-0.38l-0.6-0.2
				C124.197,87.737,122.079,83.552,123.195,79.56z M180.315,289.66c-1.398,4.13-5.845,6.38-10,5.06l-98.54-32.28
				c-4.13-1.398-6.38-5.845-5.06-10c1.414-4.114,5.856-6.344,10-5.02l1.54,0.5l95.46,31.26l1.54,0.5v-0.02
				C179.385,281.058,181.636,285.505,180.315,289.66z M188.255,217.74v0.22l-16.2,49.52l-85.44-28l45.18-138l34,11.14l51.34,16.74
				l-16.16,49.38c-0.09,0.228-0.163,0.462-0.22,0.7L188.255,217.74z M212.215,225.38c-1.266,3.806-5.365,5.878-9.18,4.64
				c-3.763-1.258-5.832-5.29-4.66-9.08l12.62-38.56c1.307-3.745,5.366-5.761,9.14-4.54c1.807,0.604,3.303,1.898,4.16,3.6
				c0.866,1.672,1.052,3.614,0.52,5.42L212.215,225.38z M271.415,241l-48.06-15.66l10.34-31.58l48.1,15.74L271.415,241z
				 M472.775,269.48c-0.08,0.202-0.147,0.409-0.2,0.62l-11.48,35.12c-2.047,6.143-8.654,9.495-14.82,7.52l-157.6-51.56l-0.62-0.2
				c-5.891-2.126-9.101-8.476-7.32-14.48c0.071-0.19,0.131-0.383,0.18-0.58l11.56-35.18v-0.14c2.105-6.087,8.694-9.368,14.82-7.38
				l157.6,51.56l0.56,0.22C471.346,257.126,474.557,263.476,472.775,269.48z"/>
			<path d="M13.155,344.58l40-16.26c2.706-1.105,4.005-4.194,2.9-6.9s-4.194-4.005-6.9-2.9l-40,16.26
				c-2.706,1.105-4.005,4.194-2.9,6.9C7.36,344.386,10.449,345.685,13.155,344.58z"/>
			<path d="M204.615,384.26c-1.044-8.707-4.989-16.809-11.2-23c-7.314-7.347-17.253-11.478-27.62-11.48H63.375
				c-10.367,0.002-20.306,4.133-27.62,11.48l-0.3,0.32c-6.049,6.151-9.89,14.134-10.92,22.7v-0.02
				c-3.058,0.875-5.84,2.521-8.08,4.78c-3.465,3.455-5.415,8.146-5.42,13.04c0.008,4.741,1.842,9.296,5.12,12.72l0.32,0.34
				c3.46,3.47,8.159,5.421,13.06,5.42h170c10.208-0.022,18.478-8.292,18.5-18.5c0.001-4.901-1.95-9.6-5.42-13.06
				C210.393,386.769,207.64,385.138,204.615,384.26z M42.955,368.96l0.26-0.24c5.331-5.361,12.579-8.377,20.14-8.38h102.44
				c7.554,0.008,14.794,3.024,20.12,8.38c4.059,4.05,6.805,9.228,7.88,14.86l-158.46-0.02
				C36.387,378.051,39.037,372.973,42.955,368.96z M199.555,409.92h-170c-2.072,0.004-4.062-0.808-5.54-2.26l-0.22-0.22
				c-1.368-1.465-2.126-3.396-2.12-5.4c-0.004-2.091,0.823-4.099,2.3-5.58c1.456-1.453,3.423-2.278,5.48-2.3h170.12
				c2.102-0.058,4.14,0.727,5.66,2.18c1.484,1.478,2.319,3.486,2.32,5.58C207.555,406.338,203.974,409.92,199.555,409.92z"/>
		</g>
	</g>
</g>
<g>
</g>
<g>
</g>
<g>
</g>
<g>
</g>
<g>
</g>
<g>
</g>
<g>
</g>
<g>
</g>
<g>
</g>
<g>
</g>
<g>
</g>
<g>
</g>
<g>
</g>
<g>
</g>
<g>
</g>
</svg>
