<svg id="Isolation_Mode" data-name="Isolation Mode" xmlns="http://www.w3.org/2000/svg" xmlns:xlink="http://www.w3.org/1999/xlink" viewBox="0 0 47.2 45.6">
  <defs>
    <style>
      .cls-1 {
        fill: none;
      }

      .cls-2 {
        clip-path: url(#clip-path);
      }

      .cls-3 {
        fill: #ecf0f1;
      }

      .cls-4 {
        fill: #07416c;
      }

      .cls-5 {
        fill: #f6ce2f;
      }

      .cls-6 {
        fill: #fff;
      }
    </style>
    <clipPath id="clip-path" transform="translate(-2 -3.37)">
      <rect class="cls-1" x="2" y="3.13" width="48" height="46.8"/>
    </clipPath>
  </defs>
  <title>invite-icon-3</title>
  <g>
    <g class="cls-2">
      <path class="cls-3" d="M16.89,36.61l-6.32,3.45a5.68,5.68,0,0,0-1,.72,21.17,21.17,0,0,0,27.22.07,6,6,0,0,0-1.11-.74l-6.78-3.39a2.59,2.59,0,0,1-1.43-2.31V31.75a9.92,9.92,0,0,0,.64-.82,15.63,15.63,0,0,0,2.11-4.25,2.13,2.13,0,0,0,1.51-2V21.82A2.12,2.12,0,0,0,31,20.25v-4.1s.84-6.38-7.8-6.38-7.8,6.38-7.8,6.38v4.1a2.12,2.12,0,0,0-.71,1.57v2.84a2.16,2.16,0,0,0,1,1.79,14.06,14.06,0,0,0,2.57,5.3v2.59a2.58,2.58,0,0,1-1.35,2.27Zm0,0" transform="translate(-2 -3.37)"/>
      <path class="cls-4" d="M23.56,3.37a21.18,21.18,0,0,0-14,37.4,6.45,6.45,0,0,1,1-.71l6.33-3.45a2.57,2.57,0,0,0,1.34-2.27V31.75a14.12,14.12,0,0,1-2.56-5.31,2.11,2.11,0,0,1-1-1.78V21.82a2.12,2.12,0,0,1,.71-1.57v-4.1s-.84-6.38,7.8-6.38S31,16.15,31,16.15v4.1a2.12,2.12,0,0,1,.71,1.57v2.84a2.13,2.13,0,0,1-1.51,2,15.63,15.63,0,0,1-2.11,4.25c-.23.32-.45.6-.64.82v2.66a2.58,2.58,0,0,0,1.43,2.31l6.78,3.39a5.5,5.5,0,0,1,1.11.74A21.2,21.2,0,0,0,23.56,3.37Zm0,0" transform="translate(-2 -3.37)"/>
    </g>
    <path class="cls-5" d="M49.2,39.37a9.6,9.6,0,1,1-9.6-9.6,9.6,9.6,0,0,1,9.6,9.6Zm0,0" transform="translate(-2 -3.37)"/>
    <path class="cls-6" d="M44.4,38.57h-4v-4a.8.8,0,1,0-1.6,0v4h-4a.8.8,0,0,0,0,1.6h4v4a.8.8,0,0,0,1.6,0v-4h4a.8.8,0,0,0,0-1.6Zm0,0" transform="translate(-2 -3.37)"/>
  </g>
</svg>
