<svg id="Layer_1" data-name="Layer 1" xmlns="http://www.w3.org/2000/svg" xmlns:xlink="http://www.w3.org/1999/xlink" viewBox="0 0 444.62 186.61">
  <defs>
    <style>
      .cls-1 {
        fill: url(#linear-gradient);
      }

      .cls-2 {
        fill: url(#linear-gradient-2);
      }

      .cls-3 {
        fill: url(#linear-gradient-3);
      }

      .cls-4 {
        opacity: 0.5;
        fill: url(#radial-gradient);
      }

      .cls-5 {
        fill: #094360;
      }
    </style>
    <linearGradient id="linear-gradient" x1="-291.45" y1="-70.96" x2="-226.25" y2="-70.96" gradientTransform="matrix(0.86, -0.01, -0.12, 0.89, 391.23, 280.64)" gradientUnits="userSpaceOnUse">
      <stop offset="0" stop-color="#5a78a0"/>
      <stop offset="1" stop-color="#111f34"/>
    </linearGradient>
    <linearGradient id="linear-gradient-2" x1="122.85" y1="220.33" x2="486.13" y2="220.33" gradientUnits="userSpaceOnUse">
      <stop offset="0" stop-color="#2a3952"/>
      <stop offset="0.22" stop-color="#2d3c56"/>
      <stop offset="0.44" stop-color="#344662"/>
      <stop offset="0.66" stop-color="#415777"/>
      <stop offset="0.89" stop-color="#526e94"/>
      <stop offset="0.97" stop-color="#5a78a0"/>
    </linearGradient>
    <linearGradient id="linear-gradient-3" x1="104.73" y1="214.72" x2="451.1" y2="214.72" gradientUnits="userSpaceOnUse">
      <stop offset="0" stop-color="#10284a"/>
      <stop offset="0.18" stop-color="#495a73"/>
    </linearGradient>
    <radialGradient id="radial-gradient" cx="265.96" cy="282.58" r="54.45" gradientTransform="translate(-5.98 253.8) scale(1.11 0.1)" gradientUnits="userSpaceOnUse">
      <stop offset="0" stop-color="#c5c5c5"/>
      <stop offset="1" stop-color="#fff" stop-opacity="0"/>
    </radialGradient>
  </defs>
  <title>Contentarenalogo</title>
  <path class="cls-1" d="M148.55,242.35a35.84,35.84,0,0,1,1.68-10.14c1.55-4.9,4.25-10.52,12.32-17l.49-.38c5.37-4.18,19.28-10.07,26.59-12.26a25.55,25.55,0,0,1,3.09-.79.35.35,0,0,1,.11,0c4-1,7.86-2,11.5-3.13,1.6-.48,3.13-1,4.59-1.57q.17-.24.33-.51c-3.05.83-6.35,1.49-9.91,2.14-5,.94-10.31,1.82-15.77,3.18a69.73,69.73,0,0,0-20.42,9.36,35.63,35.63,0,0,0-11.36,12,23.31,23.31,0,0,0-2.38,5.53,27.92,27.92,0,0,0-1.18,13.37v0" transform="translate(-75.33 -158.18)"/>
  <path class="cls-2" d="M126.33,276.74l-3.48-.3,3.48-.1c11.7-.3,31.46-4.28,52.77-10.6,9.9-3,34.7-11.3,38.33-12.89.55-.25,4-1.6,7.71-3,10.61-4,22.21-8.71,26.74-10.75a9.18,9.18,0,0,1,1.84-.7c.15,0,1.54-.6,3.13-1.29,4.93-2.2,6.43-2.84,27.28-11.9,24.34-10.61,29.27-12.79,35.1-15.58,3.43-1.65,8-3.79,10.2-4.83,5.08-2.34,61.23-27.83,72.93-31.31,22.75-6.73,45.35-10.9,58.79-9.76a44.33,44.33,0,0,1,15.33,4.38c3.39,1.69,6.08,5.43,7.67,8.27,3.88,7,1.89,25-4.53,37.88-2.19,4.38-7.27,12.19-9.81,15-.25.3-1.84,2.09-3.48,3.93a96,96,0,0,1-17.42,14.59c-5.38,3.63-19,10.65-21.91,11.35a8.91,8.91,0,0,0-2,.7,18.25,18.25,0,0,1-3.24,1.24c-15.48,4.68-23.29,6.17-31.9,6.22-24.25.05-48.59-5.87-70.14-22.5a112.52,112.52,0,0,1-10.21-9.06c-3.28-3.14-8.61-8.76-8.81-8.76a5.63,5.63,0,0,0-2,.7c-1.45.6-5.08,2.09-8.11,3.23s-6.18,2.44-7.07,2.79c-2,.85-13.74,5.53-20.07,8-2.58,1-5.37,2.09-6.22,2.44-2.29,1-24.94,9.95-36.84,14.58A334.45,334.45,0,0,1,171.88,273C155.6,276.44,138.43,277.84,126.33,276.74ZM393.4,252.55c13-1.45,28.3-9.18,35.27-13.26,8.46-5,11.76-9.43,15.84-15.6,4.93-7.47,5.58-13.36,5.23-19.13-.37-6.18-7.4-14.67-16.42-16.48s-14.53-.74-21.5.5c-4.53.8-9.56,1.79-11.2,2.19-9,2.24-12.05,3.09-17.92,4.88-12,3.73-24.74,8.31-33.6,12.15-1.5.64-8.32,3.33-15.18,6-11.06,4.28-15.59,6.07-22.36,8.91l-6.1,2.26a100.54,100.54,0,0,0,11.48,9.79,98.85,98.85,0,0,0,9.27,5.7c3.2,1.76,7.23,3.93,9.85,5,5.24,2.14,19.06,5.18,33.94,6.87,2.89.3,5.68.64,6.22.7C379.16,253.49,387.48,253.24,393.4,252.55Z" transform="translate(-75.33 -158.18)"/>
  <path class="cls-3" d="M118.12,270.38c-5.38-1.15-7.82-3.88-10.36-6.77s-3.33-7.92-2.93-13.49c1-15,13.39-31.41,33.7-44.85C155.45,194.12,180,185,198.26,182.62c10.8-1.44,15.36-1.22,19.25-.94,2.61.19,4.82.24,8,.71,7.69,1.15,38.49,10.38,52,21l5.63,3.64,3-1c4.19-1.69,46.45-20.69,52.07-22.84,34.95-13.44,40.47-14.78,56.85-18.36,14.49-3.14,26.49-6.68,39.73-6.63,8.81,0,12.94.2,14.88.7,2.59.7,2.44.7-5.47.7-14.84,0-30.32,2.88-54.71,10.25-25.54,7.72-43.71,17.22-89.85,37-2.74,1.14-20.31,8.66-39.08,16.68l-49.78,21.25c-30.37,13-53.32,23.35-74,25.79C128.52,271.52,123.39,271.47,118.12,270.38Zm37.18-20a142.74,142.74,0,0,0,30.77-7.17c6-2.14,59.63-21.06,67.7-24.44l2-.85,5.33-2.39s17.82-6.67,17.82-7.12-8.72-6.07-13.94-8.76c-21.26-10.9-44.55-12.93-63-10.2-13.19,2-29.62,6.92-42.52,13.68-18,9.46-34.89,33.6-29.62,40.68S147.44,251.46,155.3,250.42Z" transform="translate(-75.33 -158.18)"/>
  <path class="cls-4" d="M354.53,282.58c0,4.29-29,7.77-64.87,7.77s-64.88-3.48-64.88-7.77,29.05-7.76,64.88-7.76S354.53,278.29,354.53,282.58Z" transform="translate(-75.33 -158.18)"/>
  <path class="cls-5" d="M97.12,342.9a21.85,21.85,0,0,1-3.78,1.21,17.59,17.59,0,0,1-3.9.43,15.82,15.82,0,0,1-5.28-.89,14.19,14.19,0,0,1-4.59-2.73,14,14,0,0,1-4.24-10.16A12.29,12.29,0,0,1,77,324.23,19.38,19.38,0,0,1,80.27,320a10.6,10.6,0,0,1,3-2,15.9,15.9,0,0,1,2.37-.81,16.21,16.21,0,0,1,1.87-.32,14.67,14.67,0,0,1,1.85-.11,18.73,18.73,0,0,1,2.8.23,23.93,23.93,0,0,1,2.94.67l2,.89v3.53a12.29,12.29,0,0,0-7.32-2.38,11.66,11.66,0,0,0-5,1.1,10.72,10.72,0,0,0-4,3.35,12,12,0,0,0-1.49,3.13,11.8,11.8,0,0,0-.52,3.44,11.34,11.34,0,0,0,1.53,5.73,9.92,9.92,0,0,0,4.2,4,12,12,0,0,0,5.44,1.35,9.85,9.85,0,0,0,5.35-1.48l1.86-1.18Z" transform="translate(-75.33 -158.18)"/>
  <path class="cls-5" d="M135.22,330.6a14.15,14.15,0,0,1-14.17,14.19,14.48,14.48,0,0,1-10.25-4,12.93,12.93,0,0,1-4.29-9.83,14.15,14.15,0,0,1,14.18-14.2,14.51,14.51,0,0,1,10.25,4A13,13,0,0,1,135.22,330.6Zm-3.3-.07a10.33,10.33,0,0,0-3.3-7.74,11.1,11.1,0,0,0-7.93-3.16,10.24,10.24,0,0,0-7.72,3.31,11.07,11.07,0,0,0-3.16,7.95,10.27,10.27,0,0,0,3.28,7.71,11.11,11.11,0,0,0,8,3.14,10.25,10.25,0,0,0,7.71-3.3A11,11,0,0,0,131.92,330.53Z" transform="translate(-75.33 -158.18)"/>
  <path class="cls-5" d="M168.4,344.65h-.65l-19.39-21.32v20.75h-3V316.87h.75l19.21,21.35V317.51h3.06Z" transform="translate(-75.33 -158.18)"/>
  <path class="cls-5" d="M201.57,320.31h-7.65v23.77h-3.3V320.31H183v-2.8h18.6Z" transform="translate(-75.33 -158.18)"/>
  <path class="cls-5" d="M235.17,344.08H220.73V317.51h14.44v2.87H223.93v7.87h11.24V331H223.93v10.23h11.24Z" transform="translate(-75.33 -158.18)"/>
  <path class="cls-5" d="M276.09,344.65h-.65l-19.38-21.32v20.75h-3V316.87h.75L273,338.22V317.51h3Z" transform="translate(-75.33 -158.18)"/>
  <path class="cls-5" d="M309.26,320.31h-7.65v23.77h-3.3V320.31h-7.65v-2.8h18.6Z" transform="translate(-75.33 -158.18)"/>
  <path class="cls-5" d="M379.14,344.08h-3.72l-3.4-8.25H361.43L358,344.07h-3.44l11.67-27.32h.87ZM371,333.41,366.54,322l-4.32,11.46Z" transform="translate(-75.33 -158.18)"/>
  <path class="cls-5" d="M410.79,344.07h-4.32l-10-13.57v13.57h-3.34V317.51l9.84.11a5.82,5.82,0,0,1,4.65,2.15,7.54,7.54,0,0,1,1.81,5,7.33,7.33,0,0,1-.52,2.79,6.45,6.45,0,0,1-1.7,2.37,8.33,8.33,0,0,1-2.9,1.55h-3.52Zm-7.3-23.36a8.84,8.84,0,0,0-1-.31,4.23,4.23,0,0,0-.95-.13h-5.06v8.91h5.93a3.2,3.2,0,0,0,2.67-1.2,4.6,4.6,0,0,0,1-2.93,5.38,5.38,0,0,0-.64-2.62A3.86,3.86,0,0,0,403.49,320.71Z" transform="translate(-75.33 -158.18)"/>
  <path class="cls-5" d="M443.12,344.08H428.69V317.51h14.43v2.87H431.89v7.87h11.23V331H431.89v10.23h11.23Z" transform="translate(-75.33 -158.18)"/>
  <path class="cls-5" d="M484.05,344.65h-.65L464,323.33v20.75h-3V316.87h.75L481,338.22V317.51h3.05Z" transform="translate(-75.33 -158.18)"/>
  <path class="cls-5" d="M520,344.08h-3.73l-3.4-8.25H502.24l-3.41,8.25h-3.44l11.67-27.32h.86Zm-8.15-10.67L507.34,322,503,333.41Z" transform="translate(-75.33 -158.18)"/>
</svg>
