<svg id="Layer_1" data-name="Layer 1" xmlns="http://www.w3.org/2000/svg" xmlns:xlink="http://www.w3.org/1999/xlink" viewBox="0 0 110 51.28">
  <defs>
    <style>
      .cls-1 {
        fill: url(#linear-gradient);
      }

      .cls-2 {
        fill: url(#linear-gradient-2);
      }

      .cls-3 {
        font-size: 9.52px;
        fill: #28455f;
        font-family: Montserrat-Light, Montserrat;
        letter-spacing: 0.14em;
      }

      .cls-4 {
        letter-spacing: 0.16em;
      }
    </style>
    <linearGradient id="linear-gradient" x1="21.66" y1="44.2" x2="126.44" y2="44.2" gradientUnits="userSpaceOnUse">
      <stop offset="0" stop-color="#29395b"/>
      <stop offset="0.45" stop-color="#293b5d"/>
      <stop offset="0.61" stop-color="#2b4264"/>
      <stop offset="0.73" stop-color="#2d4d6f"/>
      <stop offset="0.82" stop-color="#305e80"/>
      <stop offset="0.9" stop-color="#347496"/>
      <stop offset="0.97" stop-color="#398fb1"/>
      <stop offset="1" stop-color="#3c9ec0"/>
    </linearGradient>
    <linearGradient id="linear-gradient-2" x1="16.44" y1="42.59" x2="116.33" y2="42.59" gradientUnits="userSpaceOnUse">
      <stop offset="0" stop-color="#29395b"/>
      <stop offset="0.19" stop-color="#2a3d5f"/>
      <stop offset="0.38" stop-color="#2c496b"/>
      <stop offset="0.58" stop-color="#305e80"/>
      <stop offset="0.78" stop-color="#357b9d"/>
      <stop offset="0.97" stop-color="#3c9ec0"/>
    </linearGradient>
  </defs>
  <title>content-arena-logo</title>
  <g>
    <path class="cls-1" d="M22.67,60.47l-1-.08,1,0c3.37-.09,9.07-1.24,15.21-3.06,2.86-.86,10-3.26,11.06-3.72.16-.07,1.16-.46,2.22-.86,3.06-1.16,6.41-2.51,7.71-3.1a2.35,2.35,0,0,1,.54-.2s.44-.17.9-.37c1.42-.64,1.85-.82,7.87-3.44,7-3,8.44-3.69,10.12-4.49l2.94-1.39c1.47-.68,17.66-8,21-9,6.56-1.94,13.08-3.15,17-2.82a12.8,12.8,0,0,1,4.42,1.27,5.94,5.94,0,0,1,2.22,2.38c1.11,2,.54,7.21-1.31,10.93a26.92,26.92,0,0,1-2.83,4.32l-1,1.13a27.39,27.39,0,0,1-5,4.21,39,39,0,0,1-6.32,3.27,2.38,2.38,0,0,0-.57.2,4.67,4.67,0,0,1-.94.36c-4.46,1.35-6.71,1.78-9.2,1.8a32.19,32.19,0,0,1-20.23-6.49,33.62,33.62,0,0,1-2.94-2.62c-1-.9-2.48-2.52-2.54-2.52a1.55,1.55,0,0,0-.58.2c-.41.17-1.46.6-2.34.93s-1.78.7-2,.8c-.56.25-4,1.6-5.79,2.3-.75.29-1.55.6-1.8.71-.66.28-7.19,2.87-10.62,4.2a97,97,0,0,1-14,4.14A47.84,47.84,0,0,1,22.67,60.47Zm77-7c3.74-.42,8.16-2.65,10.17-3.83a12.24,12.24,0,0,0,4.57-4.5,8.29,8.29,0,0,0,1.51-5.51c-.11-1.78-2.13-4.23-4.73-4.76a14.49,14.49,0,0,0-6.21.15c-1.3.23-2.75.51-3.23.63-2.59.64-3.47.89-5.17,1.41-3.45,1.07-7.13,2.39-9.69,3.5-.43.19-2.39,1-4.37,1.74-3.19,1.23-4.5,1.75-6.45,2.57l-1.76.65a29,29,0,0,0,3.31,2.82A30.4,30.4,0,0,0,80.31,50c.93.5,2.09,1.13,2.84,1.44a47.29,47.29,0,0,0,9.79,2l1.8.2A26.35,26.35,0,0,0,99.69,53.5Z" transform="translate(-16.44 -26.28)"/>
    <path class="cls-2" d="M20.3,58.64a5,5,0,0,1-3-2,5.5,5.5,0,0,1-.85-3.89c.31-4.33,3.87-9.06,9.72-12.94a45.94,45.94,0,0,1,17.23-6.53A23.77,23.77,0,0,1,49,33.06c.76,0,1.39.07,2.3.2,2.22.33,11.1,3,15,6.05l1.63,1,.86-.28c1.2-.49,13.39-6,15-6.59,10.07-3.88,11.67-4.27,16.39-5.3,4.18-.9,7.64-1.92,11.46-1.91a23.41,23.41,0,0,1,4.29.2c.75.2.7.2-1.58.2-4.28,0-8.74.84-15.78,3-7.36,2.23-12.6,5-25.91,10.68L61.36,45.13,47,51.26C38.24,55,31.62,58,25.67,58.7A16.2,16.2,0,0,1,20.3,58.64ZM31,52.88a40.31,40.31,0,0,0,8.87-2.07c1.73-.61,17.2-6.07,19.53-7.05l.57-.24,1.54-.69s5.14-1.92,5.14-2a24.5,24.5,0,0,0-4-2.53,30.74,30.74,0,0,0-18.18-2.94,41.57,41.57,0,0,0-12.26,3.95C27,42,22.15,49,23.67,51S28.75,53.18,31,52.88Z" transform="translate(-16.44 -26.28)"/>
  </g>
  <text class="cls-3" transform="translate(3.07 48.79)">C<tspan class="cls-4" x="8.19" y="0">ONTENT ARENA</tspan></text>
</svg>
